<svg xmlns="http://www.w3.org/2000/svg" viewBox="0 0 1600 1000"><title>Bay Heights overview</title><defs><linearGradient id="sky" x1="0" y1="0" x2="1" y2="1"><stop stop-color="#152c34"/><stop offset=".52" stop-color="#6c858c"/><stop offset="1" stop-color="#c9b995"/></linearGradient><linearGradient id="water" x1="0" y1="0" x2="0" y2="1"><stop stop-color="#54737b"/><stop offset="1" stop-color="#1c343b"/></linearGradient></defs><rect width="1600" height="1000" fill="url(#sky)"/><path d="M0 620 L1600 530 V1000H0Z" fill="url(#water)"/><g fill="#17282d"><path d="M280 760V170h250v590zM560 760V80h280v680zM870 760V210h190v550zM1090 760V120h260v640z"/></g><g stroke="#dbcda9" stroke-width="10" opacity=".7"><path d="M320 250h170M320 330h170M320 410h170M600 170h200M600 250h200M600 330h200M1125 220h190M1125 300h190M1125 380h190"/></g><path d="M0 760 Q300 680 620 760 T1240 730 T1600 760" fill="none" stroke="#e4d4ae" stroke-width="8" opacity=".5"/></svg>